<svg width="64" height="64" viewBox="0 0 64 64" fill="none" xmlns="http://www.w3.org/2000/svg" role="img" aria-labelledby="title desc">
  <title id="title">MyTitan mark</title>
  <desc id="desc">A Spartan-inspired helmet inside a shield.</desc>
  <defs>
    <linearGradient id="mytitanShield" x1="10" y1="6" x2="52" y2="58" gradientUnits="userSpaceOnUse">
      <stop stop-color="#1D4ED8"/>
      <stop offset="0.58" stop-color="#2563EB"/>
      <stop offset="1" stop-color="#0F766E"/>
    </linearGradient>
    <linearGradient id="mytitanHelmet" x1="23" y1="15" x2="41" y2="47" gradientUnits="userSpaceOnUse">
      <stop stop-color="#FFFFFF"/>
      <stop offset="0.58" stop-color="#E2E8F0"/>
      <stop offset="1" stop-color="#CBD5E1"/>
    </linearGradient>
  </defs>
  <path d="M32 4L50.8 10.2C53.4 11.1 55.1 13.4 55.1 16.2V31.9C55.1 44.2 47.7 55.1 36.2 59.8L32 61.5L27.8 59.8C16.3 55.1 8.9 44.2 8.9 31.9V16.2C8.9 13.4 10.6 11.1 13.2 10.2L32 4Z" fill="url(#mytitanShield)"/>
  <path d="M32 8.9L47.5 14C49.1 14.6 50.2 16 50.2 17.7V31C50.2 41.3 43.8 50.3 34.3 54.2L32 55.1L29.7 54.2C20.2 50.3 13.8 41.3 13.8 31V17.7C13.8 16 14.9 14.6 16.5 14L32 8.9Z" fill="#0F172A" fill-opacity="0.14"/>
  <path d="M23.4 18.2C25.7 15.2 29 13.6 32.6 13.6C36.8 13.6 40.5 15.5 43 18.9L46 23C46.9 24.2 46 26 44.5 26H40.2C39.1 26 38 25.5 37.2 24.7L35.5 22.9C34.8 22.2 33.8 21.8 32.8 21.8C31.8 21.8 30.8 22.2 30 22.9L28.3 24.7C27.5 25.5 26.5 26 25.3 26H20.4C18.9 26 18 24.2 18.9 23L23.4 18.2Z" fill="url(#mytitanHelmet)"/>
  <path d="M27.2 17.9C28.7 16.8 30.6 16.2 32.6 16.2C35 16.2 37.2 17.1 38.9 18.7L40.6 20.2H38.5C37.7 20.2 36.9 19.9 36.3 19.4L35.6 18.8C34.8 18 33.7 17.6 32.6 17.6C31.5 17.6 30.4 18 29.6 18.8L28.9 19.4C28.3 19.9 27.5 20.2 26.7 20.2H24.9L27.2 17.9Z" fill="#FFFFFF" fill-opacity="0.88"/>
  <path d="M23.6 30C23.6 28.9 24.5 28 25.6 28H42.8C44 28 44.8 29.1 44.4 30.2C43.1 35.1 39.8 39.4 35.2 42L31.3 44.2C29.8 45.1 28 44 28 42.3V37.7C28 36.5 28.6 35.5 29.6 34.8L33.7 32.2C34.8 31.6 34.3 30 33 30H23.6Z" fill="#F8FAFC"/>
  <path d="M39 28H47.8C49 28 50 28.9 50 30.1V31C50 41.3 43.8 50.3 34.3 54.2L32 55.1L29.7 54.2C28.6 53.8 28 52.8 28 51.7V47.2C28 46.5 28.4 45.8 29.1 45.4L34.2 42.6C36.9 41 39.1 38.7 40.5 35.8C41.3 34.2 41.7 32.3 41.8 30.5V30.4C41.8 29.1 40.8 28 39.5 28H39Z" fill="#0F172A" fill-opacity="0.16"/>
  <path d="M22.8 31.2H31.8L29.4 32.8C27.9 33.7 27 35.4 27 37.2V43.5C24.8 40.5 23.4 36.9 22.9 33C22.8 32.8 22.8 31.2 22.8 31.2Z" fill="#D8E2EE"/>
</svg>
